<svg width="38" height="40" viewBox="0 0 38 40" fill="none" xmlns="http://www.w3.org/2000/svg">
<path d="M22.4817 34.0795C22.1514 34.2248 21.8913 34.4932 21.7587 34.8254C21.6261 35.1577 21.6319 35.5267 21.7747 35.8512C22.1746 36.7599 22.9255 37.4697 23.8623 37.8245C24.7991 38.1792 25.845 38.1499 26.7699 37.7429C27.6948 37.3358 28.423 36.5845 28.7943 35.6542C29.1656 34.7238 29.1495 33.6906 28.7496 32.7819C28.6068 32.4574 28.3386 32.2039 28.0041 32.0772C27.6695 31.9505 27.296 31.961 26.9656 32.1063L22.4817 34.0795Z" fill="#CFCFCF"/>
<path d="M13.1774 5.79651C10.5615 6.95115 8.49623 9.06362 7.43445 11.6705C6.37268 14.2774 6.40115 17.1659 7.51363 19.7023L7.60258 19.9044C9.23482 23.6136 9.98177 27.7775 9.82474 32.2818C9.78863 33.2853 9.97949 34.279 10.3837 35.1917C10.5241 35.5109 10.7897 35.7593 11.1219 35.8824C11.4542 36.0056 11.8259 35.9933 12.1554 35.8483L36.0207 25.3464C36.3501 25.2014 36.6103 24.9356 36.744 24.6075C36.8776 24.2793 36.8738 23.9157 36.7334 23.5965C36.3339 22.6819 35.7307 21.8696 34.967 21.2179C31.5444 18.2966 28.9819 14.9354 27.3504 11.2278L27.2565 11.0144C26.1382 8.4804 24.0278 6.50783 21.3882 5.52959C18.7487 4.55134 15.7957 4.64734 13.1774 5.79651V5.79651Z" fill="#CFCFCF"/>
</svg>
